<?xml version="1.0" encoding="UTF-8"?>
<svg xmlns="http://www.w3.org/2000/svg" xmlns:xlink="http://www.w3.org/1999/xlink" width="300px" height="300px" viewBox="0 0 300 300" version="1.1">
<g id="surface1">
<path style=" stroke:none;fill-rule:nonzero;fill:rgb(20%,0%,0%);fill-opacity:1;" d="M 80.503906 45.082031 L 219.496094 45.082031 C 240.546875 45.082031 257.609375 62.144531 257.609375 83.191406 L 257.609375 216.808594 C 257.609375 237.855469 240.546875 254.917969 219.496094 254.917969 L 80.503906 254.917969 C 59.453125 254.917969 42.390625 237.855469 42.390625 216.808594 L 42.390625 83.191406 C 42.390625 62.144531 59.453125 45.082031 80.503906 45.082031 Z M 80.503906 45.082031 "/>
<path style=" stroke:none;fill-rule:nonzero;fill:rgb(100%,60.392157%,0%);fill-opacity:1;" d="M 146.683594 171.007812 L 113.332031 171.007812 L 106.546875 192.085938 C 106.355469 192.878906 105.628906 193.425781 104.8125 193.386719 L 87.921875 193.386719 C 86.957031 193.386719 86.621094 192.859375 86.910156 191.800781 L 115.785156 108.640625 C 116.074219 107.773438 116.363281 106.785156 116.652344 105.679688 C 117.03125 103.753906 117.222656 101.796875 117.230469 99.832031 C 117.191406 99.554688 117.285156 99.273438 117.484375 99.074219 C 117.683594 98.875 117.960938 98.78125 118.242188 98.820312 L 141.195312 98.820312 C 141.867188 98.820312 142.253906 99.0625 142.351562 99.542969 L 175.125 191.941406 C 175.414062 192.90625 175.125 193.386719 174.257812 193.386719 L 155.488281 193.386719 C 154.820312 193.460938 154.203125 193.027344 154.046875 192.375 Z M 118.53125 152.816406 L 141.339844 152.816406 C 140.761719 150.894531 140.089844 148.726562 139.320312 146.320312 C 138.546875 143.917969 137.730469 141.339844 136.863281 138.597656 C 136 135.855469 135.132812 133.109375 134.265625 130.367188 C 133.398438 127.625 132.605469 124.976562 131.882812 122.425781 C 131.160156 119.878906 130.511719 117.542969 129.933594 115.425781 L 129.789062 115.425781 C 128.976562 119.324219 127.964844 123.179688 126.757812 126.976562 C 125.410156 131.304688 124.039062 135.734375 122.644531 140.257812 C 121.246094 144.78125 119.875 148.96875 118.53125 152.816406 Z M 118.53125 152.816406 "/>
<path style=" stroke:none;fill-rule:nonzero;fill:rgb(100%,60.392157%,0%);fill-opacity:1;" d="M 194.613281 114.125 C 191.632812 114.246094 188.746094 113.089844 186.671875 110.949219 C 184.605469 108.71875 183.515625 105.757812 183.640625 102.71875 C 183.535156 99.707031 184.714844 96.792969 186.890625 94.707031 C 189.039062 92.644531 191.921875 91.527344 194.902344 91.601562 C 198.367188 91.601562 201.085938 92.636719 203.058594 94.707031 C 205.070312 96.878906 206.136719 99.761719 206.019531 102.71875 C 206.140625 105.769531 205.019531 108.738281 202.914062 110.949219 C 200.710938 113.121094 197.703125 114.273438 194.613281 114.125 Z M 184.652344 191.941406 L 184.652344 122.933594 C 184.652344 122.066406 185.035156 121.632812 185.804688 121.632812 L 203.5625 121.632812 C 204.332031 121.632812 204.71875 122.066406 204.71875 122.933594 L 204.71875 191.941406 C 204.71875 192.90625 204.335938 193.386719 203.5625 193.386719 L 185.949219 193.386719 C 185.085938 193.386719 184.652344 192.90625 184.652344 191.941406 Z M 184.652344 191.941406 "/>
</g>
</svg>
