<?xml version="1.0" encoding="UTF-8"?>
<svg xmlns="http://www.w3.org/2000/svg" xmlns:xlink="http://www.w3.org/1999/xlink" width="300px" height="300px" viewBox="0 0 300 300" version="1.1">
<g id="surface1">
<path style=" stroke:none;fill-rule:nonzero;fill:rgb(0%,11.764706%,21.176471%);fill-opacity:1;" d="M 81.558594 46.671875 L 218.441406 46.671875 C 239.171875 46.671875 255.976562 63.476562 255.976562 84.207031 L 255.976562 215.792969 C 255.976562 236.523438 239.171875 253.328125 218.441406 253.328125 L 81.558594 253.328125 C 60.828125 253.328125 44.023438 236.523438 44.023438 215.792969 L 44.023438 84.207031 C 44.023438 63.476562 60.828125 46.671875 81.558594 46.671875 Z M 81.558594 46.671875 "/>
<path style=" stroke:none;fill-rule:nonzero;fill:rgb(19.215686%,65.882353%,100%);fill-opacity:1;" d="M 91.75 191.589844 L 91.75 100.734375 C 91.75 100.074219 92.035156 99.738281 92.601562 99.738281 C 94.117188 99.738281 95.5 99.71875 97.585938 99.667969 C 99.671875 99.621094 101.921875 99.574219 104.339844 99.527344 C 106.757812 99.480469 109.316406 99.433594 112.019531 99.382812 C 114.71875 99.335938 117.398438 99.3125 120.050781 99.3125 C 127.253906 99.3125 133.320312 100.214844 138.253906 102.015625 C 142.699219 103.519531 146.753906 105.996094 150.125 109.265625 C 152.980469 112.101562 155.1875 115.519531 156.59375 119.289062 C 157.925781 122.960938 158.597656 126.832031 158.585938 130.734375 C 158.585938 138.320312 156.832031 144.578125 153.324219 149.503906 C 149.792969 154.453125 144.832031 158.199219 139.105469 160.238281 C 133.132812 162.46875 126.496094 163.222656 119.199219 163.222656 C 117.113281 163.222656 115.644531 163.199219 114.792969 163.152344 C 113.9375 163.105469 112.660156 163.082031 110.953125 163.082031 L 110.953125 191.449219 C 111.003906 191.800781 110.882812 192.15625 110.632812 192.410156 C 110.382812 192.660156 110.027344 192.78125 109.671875 192.730469 L 92.746094 192.730469 C 92.082031 192.730469 91.75 192.351562 91.75 191.589844 Z M 110.953125 116.800781 L 110.953125 146.4375 C 112.183594 146.53125 113.320312 146.578125 114.363281 146.578125 L 119.058594 146.578125 C 122.507812 146.566406 125.9375 146.019531 129.222656 144.953125 C 132.039062 144.117188 134.558594 142.488281 136.476562 140.261719 C 138.324219 138.082031 139.246094 135.050781 139.246094 131.164062 C 139.324219 128.414062 138.605469 125.699219 137.1875 123.34375 C 135.691406 121.066406 133.53125 119.300781 131 118.296875 C 127.695312 117.011719 124.164062 116.40625 120.621094 116.519531 C 118.347656 116.519531 116.332031 116.542969 114.578125 116.589844 C 112.824219 116.636719 111.613281 116.707031 110.953125 116.800781 Z M 110.953125 116.800781 "/>
<path style=" stroke:none;fill-rule:nonzero;fill:rgb(19.215686%,65.882353%,100%);fill-opacity:1;" d="M 213.5625 141.046875 C 210.886719 139.675781 208.042969 138.671875 205.101562 138.0625 C 201.859375 137.316406 198.542969 136.9375 195.21875 136.925781 C 193.417969 136.875 191.621094 137.089844 189.886719 137.5625 C 188.78125 137.808594 187.800781 138.441406 187.113281 139.339844 C 186.652344 140.0625 186.402344 140.902344 186.402344 141.757812 C 186.429688 142.589844 186.730469 143.390625 187.257812 144.035156 C 188.085938 145.003906 189.101562 145.800781 190.242188 146.378906 C 192.269531 147.472656 194.359375 148.445312 196.5 149.292969 C 201.269531 150.890625 205.828125 153.0625 210.078125 155.761719 C 212.96875 157.589844 215.363281 160.105469 217.042969 163.085938 C 218.457031 165.910156 219.164062 169.03125 219.105469 172.1875 C 219.191406 176.351562 218 180.445312 215.695312 183.917969 C 213.222656 187.441406 209.792969 190.179688 205.8125 191.808594 C 201.496094 193.703125 196.164062 194.652344 189.816406 194.652344 C 185.78125 194.691406 181.753906 194.3125 177.800781 193.515625 C 174.683594 192.941406 171.652344 191.988281 168.773438 190.671875 C 168.136719 190.34375 167.75 189.675781 167.777344 188.964844 L 167.777344 173.609375 C 167.742188 173.300781 167.878906 173 168.132812 172.824219 C 168.382812 172.683594 168.695312 172.714844 168.914062 172.898438 C 172.316406 174.902344 176.011719 176.367188 179.863281 177.234375 C 183.257812 178.085938 186.742188 178.539062 190.242188 178.585938 C 193.558594 178.585938 196 178.15625 197.566406 177.304688 C 199.007812 176.644531 199.925781 175.195312 199.910156 173.609375 C 199.910156 172.378906 199.199219 171.191406 197.777344 170.054688 C 196.355469 168.914062 193.464844 167.542969 189.105469 165.929688 C 184.640625 164.375 180.40625 162.222656 176.519531 159.53125 C 173.742188 157.597656 171.453125 155.042969 169.839844 152.066406 C 168.441406 149.265625 167.734375 146.167969 167.777344 143.039062 C 167.769531 139.277344 168.800781 135.585938 170.761719 132.375 C 172.996094 128.839844 176.207031 126.023438 180.003906 124.269531 C 184.175781 122.1875 189.386719 121.144531 195.644531 121.140625 C 199.308594 121.113281 202.96875 121.375 206.59375 121.921875 C 209.21875 122.257812 211.78125 122.949219 214.214844 123.984375 C 214.605469 124.097656 214.921875 124.386719 215.070312 124.765625 C 215.164062 125.113281 215.210938 125.472656 215.210938 125.832031 L 215.210938 140.195312 C 215.230469 140.535156 215.070312 140.859375 214.785156 141.046875 C 214.398438 141.238281 213.945312 141.238281 213.5625 141.046875 Z M 213.5625 141.046875 "/>
</g>
</svg>
