<?xml version="1.0" encoding="UTF-8"?>
<svg xmlns="http://www.w3.org/2000/svg" xmlns:xlink="http://www.w3.org/1999/xlink" width="300px" height="300px" viewBox="0 0 300 300" version="1.1">
<g id="surface1">
<path style=" stroke:none;fill-rule:nonzero;fill:rgb(0%,0%,35.686275%);fill-opacity:1;" d="M 80.871094 45.636719 L 219.128906 45.636719 C 240.09375 45.636719 257.042969 62.582031 257.042969 83.546875 L 257.042969 216.453125 C 257.042969 237.417969 240.09375 254.363281 219.128906 254.363281 L 80.871094 254.363281 C 59.90625 254.363281 42.957031 237.417969 42.957031 216.453125 L 42.957031 83.546875 C 42.957031 62.582031 59.90625 45.636719 80.871094 45.636719 Z M 80.871094 45.636719 "/>
<path style=" stroke:none;fill-rule:nonzero;fill:rgb(60%,60%,100%);fill-opacity:1;" d="M 93.804688 192.011719 L 93.804688 100.226562 C 93.804688 99.601562 94.070312 99.246094 94.695312 99.246094 C 96.210938 99.246094 97.640625 99.246094 99.691406 99.15625 C 101.832031 99.066406 104.0625 99.066406 106.46875 98.976562 C 108.878906 98.886719 111.464844 98.886719 114.230469 98.796875 C 116.996094 98.710938 119.671875 98.710938 122.347656 98.710938 C 129.664062 98.710938 135.726562 99.601562 140.722656 101.476562 C 145.183594 102.992188 149.285156 105.488281 152.675781 108.789062 C 155.53125 111.644531 157.761719 115.121094 159.1875 118.957031 C 160.527344 122.703125 161.238281 126.539062 161.238281 130.554688 C 161.238281 138.226562 159.457031 144.558594 155.886719 149.554688 C 152.320312 154.550781 147.324219 158.296875 141.527344 160.4375 C 135.460938 162.667969 128.769531 163.46875 121.457031 163.46875 C 119.316406 163.46875 117.886719 163.46875 116.996094 163.378906 C 116.105469 163.289062 114.855469 163.289062 113.160156 163.289062 L 113.160156 191.925781 C 113.25 192.550781 112.804688 193.085938 112.179688 193.171875 C 112.089844 193.171875 112 193.171875 111.820312 193.171875 L 94.875 193.171875 C 94.160156 193.171875 93.804688 192.816406 93.804688 192.011719 Z M 113.25 116.460938 L 113.25 146.433594 C 114.496094 146.519531 115.65625 146.609375 116.726562 146.609375 L 121.457031 146.609375 C 124.933594 146.609375 128.414062 146.074219 131.714844 145.003906 C 134.566406 144.203125 137.066406 142.507812 139.027344 140.277344 C 140.902344 138.046875 141.792969 135.015625 141.792969 131.089844 C 141.882812 128.324219 141.167969 125.558594 139.742188 123.152344 C 138.226562 120.832031 136.085938 119.046875 133.496094 118.066406 C 130.199219 116.726562 126.628906 116.191406 122.972656 116.28125 C 120.652344 116.28125 118.601562 116.28125 116.90625 116.371094 C 115.121094 116.28125 113.875 116.371094 113.25 116.460938 Z M 113.25 116.460938 "/>
<path style=" stroke:none;fill-rule:nonzero;fill:rgb(60%,60%,100%);fill-opacity:1;" d="M 173.726562 121.632812 L 189.335938 121.632812 C 190.230469 121.632812 190.941406 122.257812 191.210938 123.0625 C 191.476562 123.773438 191.65625 124.488281 191.746094 125.292969 C 191.925781 126.183594 192.101562 127.164062 192.191406 128.054688 C 192.28125 129.039062 192.371094 130.109375 192.371094 131.269531 C 195.046875 128.144531 198.257812 125.558594 201.914062 123.597656 C 206.019531 121.277344 210.746094 120.117188 215.472656 120.117188 C 216.097656 120.027344 216.632812 120.472656 216.722656 121.097656 C 216.722656 121.1875 216.722656 121.277344 216.722656 121.457031 L 216.722656 138.851562 C 216.722656 139.5625 216.277344 139.832031 215.296875 139.832031 C 212.082031 139.742188 208.785156 140.007812 205.660156 140.722656 C 203.074219 141.257812 200.578125 142.0625 198.167969 143.132812 C 196.472656 143.933594 194.867188 145.003906 193.621094 146.433594 L 193.621094 191.925781 C 193.621094 192.816406 193.261719 193.171875 192.460938 193.171875 L 174.886719 193.171875 C 174.171875 193.261719 173.550781 192.816406 173.460938 192.101562 C 173.460938 192.011719 173.460938 191.835938 173.460938 191.746094 L 173.460938 142.328125 C 173.460938 140.1875 173.460938 137.957031 173.371094 135.636719 C 173.28125 133.320312 173.28125 131 173.191406 128.679688 C 173.191406 126.628906 173.015625 124.667969 172.835938 122.617188 C 172.746094 122.167969 173.015625 121.722656 173.460938 121.632812 C 173.460938 121.542969 173.636719 121.542969 173.726562 121.632812 Z M 173.726562 121.632812 "/>
</g>
</svg>
